ffmpeg started on 2025-05-29 at 16:27:24
Report written to "D:\Convert\FFMetrics\reports\ssim_report-6.txt"
Log level: 32
Command line:
ffmpeg -hide_banner -nostdin -i "G:\\\xc0\xed\xe8\xec\xe5\\\xce\xed\xe3\xee\xe8\xed\xe3\xe8\\!_36_\xce\xf1\xe5\xed\xfc_2024\\JamClub\\\xd2\xfb - \xe3\xee\xf0\xed\xe8\xf7\xed\xe0\xff\\JamClub_Kimi_wa_Meido_sama_06_1080p_HEVC.mkv" -i "G:\\\xc0\xed\xe8\xec\xe5\\\xce\xed\xe3\xee\xe8\xed\xe3\xe8\\!_36_\xce\xf1\xe5\xed\xfc_2024\\JamClub\\\xd2\xfb - \xe3\xee\xf0\xed\xe8\xf7\xed\xe0\xff\\JamClub_Kimi_wa_Meido_sama_06_1080p.mp4" -lavfi "[0:v]settb=AVTB,setpts=PTS-STARTPTS,format=pix_fmts=yuv420p10,fps=24000/1001,scale=1920:1080:flags=bicubic[main];[1:v]settb=AVTB,setpts=PTS-STARTPTS,format=pix_fmts=yuv420p,fps=24000/1001,scale=1920:1080:flags=bicubic[ref];[main][ref]ssim=eof_action=endall:stats_file='D\\:/Convert/FFMetrics/logs/ssim_logfile-6.txt'" -f null -
Input #0, matroska,webm, from 'G:\Аниме\Онгоинги\!_36_Осень_2024\JamClub\Ты - горничная\JamClub_Kimi_wa_Meido_sama_06_1080p_HEVC.mkv':
  Metadata:
    COMPATIBLE_BRANDS: isomiso2avc1mp41
    MAJOR_BRAND     : isom
    MINOR_VERSION   : 512
    ENCODER         : Lavf61.7.100
  Duration: 00:23:22.26, start: -0.001000, bitrate: 1960 kb/s
  Stream #0:0: Video: hevc (Main 10), yuv420p10le(tv, bt709, progressive), 1920x1080 [SAR 1:1 DAR 16:9], 23.98 fps, 23.98 tbr, 1k tbn (default)
      Metadata:
        HANDLER_NAME    : VideoHandler
        VENDOR_ID       : [0][0][0][0]
        ENCODER         : Lavc61.19.100 libx265
        BPS             : 1762935
        DURATION        : 00:23:22.192708333
        NUMBER_OF_FRAMES: 33619
        NUMBER_OF_BYTES : 308996707
        _STATISTICS_WRITING_APP: mkvpropedit v66.0.0 ('Josie') 64-bit
        _STATISTICS_WRITING_DATE_UTC: 2025-05-29 10:25:08
        _STATISTICS_TAGS: BPS DURATION NUMBER_OF_FRAMES NUMBER_OF_BYTES
  Stream #0:1(eng): Audio: aac (LC), 48000 Hz, stereo, fltp (default)
      Metadata:
        HANDLER_NAME    : SoundHandler
        VENDOR_ID       : [0][0][0][0]
        ENCODER         : Lavc61.19.100 aac
        BPS             : 193711
        DURATION        : 00:23:22.221000000
        NUMBER_OF_FRAMES: 65730
        NUMBER_OF_BYTES : 33953356
        _STATISTICS_WRITING_APP: mkvpropedit v66.0.0 ('Josie') 64-bit
        _STATISTICS_WRITING_DATE_UTC: 2025-05-29 10:25:08
        _STATISTICS_TAGS: BPS DURATION NUMBER_OF_FRAMES NUMBER_OF_BYTES
Input #1, mov,mp4,m4a,3gp,3g2,mj2, from 'G:\Аниме\Онгоинги\!_36_Осень_2024\JamClub\Ты - горничная\JamClub_Kimi_wa_Meido_sama_06_1080p.mp4':
  Metadata:
    major_brand     : isom
    minor_version   : 512
    compatible_brands: isomiso2avc1mp41
    encoder         : Lavf60.16.100
  Duration: 00:23:22.24, start: 0.000000, bitrate: 4480 kb/s
  Stream #1:0[0x1](und): Video: h264 (High) (avc1 / 0x31637661), yuv420p(progressive), 1920x1080 [SAR 1:1 DAR 16:9], 4282 kb/s, 23.98 fps, 23.98 tbr, 90k tbn (default)
      Metadata:
        handler_name    : VideoHandler
        vendor_id       : [0][0][0][0]
  Stream #1:1[0x2](eng): Audio: aac (LC) (mp4a / 0x6134706D), 48000 Hz, stereo, fltp, 191 kb/s (default)
      Metadata:
        handler_name    : SoundHandler
        vendor_id       : [0][0][0][0]
Stream mapping:
  Stream #0:0 (hevc) -> settb:default
  Stream #1:0 (h264) -> settb:default
  ssim:default -> Stream #0:0 (wrapped_avframe)
  Stream #0:1 -> #0:1 (aac (native) -> pcm_s16le (native))
Output #0, null, to 'pipe:':
  Metadata:
    COMPATIBLE_BRANDS: isomiso2avc1mp41
    MAJOR_BRAND     : isom
    MINOR_VERSION   : 512
    encoder         : Lavf61.7.100
  Stream #0:0: Video: wrapped_avframe, yuv420p10le(tv, bt709, progressive), 1920x1080 [SAR 1:1 DAR 16:9], q=2-31, 200 kb/s, 23.98 fps, 23.98 tbn
      Metadata:
        encoder         : Lavc61.19.100 wrapped_avframe
  Stream #0:1(eng): Audio: pcm_s16le, 48000 Hz, stereo, s16, 1536 kb/s (default)
      Metadata:
        HANDLER_NAME    : SoundHandler
        VENDOR_ID       : [0][0][0][0]
        _STATISTICS_TAGS: BPS DURATION NUMBER_OF_FRAMES NUMBER_OF_BYTES
        BPS             : 193711
        DURATION        : 00:23:22.221000000
        NUMBER_OF_FRAMES: 65730
        NUMBER_OF_BYTES : 33953356
        _STATISTICS_WRITING_APP: mkvpropedit v66.0.0 ('Josie') 64-bit
        _STATISTICS_WRITING_DATE_UTC: 2025-05-29 10:25:08
        encoder         : Lavc61.19.100 pcm_s16le
frame=  107 fps=0.0 q=-0.0 size=N/A time=00:00:04.46 bitrate=N/A speed= 8.7x    frame=  270 fps=260 q=-0.0 size=N/A time=00:00:11.26 bitrate=N/A speed=10.9x    frame=  468 fps=300 q=-0.0 size=N/A time=00:00:19.51 bitrate=N/A speed=12.5x    frame=  685 fps=333 q=-0.0 size=N/A time=00:00:28.57 bitrate=N/A speed=13.9x    frame=  959 fps=371 q=-0.0 size=N/A time=00:00:39.99 bitrate=N/A speed=15.5x    frame= 1206 fps=389 q=-0.0 size=N/A time=00:00:50.30 bitrate=N/A speed=16.2x    frame= 1442 fps=400 q=-0.0 size=N/A time=00:01:00.14 bitrate=N/A speed=16.7x    frame= 1682 fps=407 q=-0.0 size=N/A time=00:01:10.15 bitrate=N/A speed=  17x    frame= 1943 fps=419 q=-0.0 size=N/A time=00:01:21.03 bitrate=N/A speed=17.5x    frame= 2177 fps=422 q=-0.0 size=N/A time=00:01:30.79 bitrate=N/A speed=17.6x    frame= 2402 fps=423 q=-0.0 size=N/A time=00:01:40.18 bitrate=N/A speed=17.6x    frame= 2637 fps=426 q=-0.0 size=N/A time=00:01:49.98 bitrate=N/A speed=17.8x    frame= 2850 fps=425 q=-0.0 size=N/A time=00:01:58.86 bitrate=N/A speed=17.7x    frame= 3087 fps=427 q=-0.0 size=N/A time=00:02:08.75 bitrate=N/A speed=17.8x    frame= 3301 fps=426 q=-0.0 size=N/A time=00:02:17.67 bitrate=N/A speed=17.8x    frame= 3499 fps=424 q=-0.0 size=N/A time=00:02:25.93 bitrate=N/A speed=17.7x    frame= 3689 fps=420 q=-0.0 size=N/A time=00:02:33.86 bitrate=N/A speed=17.5x    frame= 3832 fps=413 q=-0.0 size=N/A time=00:02:39.82 bitrate=N/A speed=17.2x    frame= 3929 fps=401 q=-0.0 size=N/A time=00:02:43.87 bitrate=N/A speed=16.7x    frame= 4051 fps=393 q=-0.0 size=N/A time=00:02:48.96 bitrate=N/A speed=16.4x    frame= 4186 fps=386 q=-0.0 size=N/A time=00:02:54.59 bitrate=N/A speed=16.1x    frame= 4292 fps=378 q=-0.0 size=N/A time=00:02:59.01 bitrate=N/A speed=15.8x    frame= 4475 fps=377 q=-0.0 size=N/A time=00:03:06.64 bitrate=N/A speed=15.7x    frame= 4618 fps=373 q=-0.0 size=N/A time=00:03:12.60 bitrate=N/A speed=15.5x    frame= 4850 fps=376 q=-0.0 size=N/A time=00:03:22.28 bitrate=N/A speed=15.7x    frame= 5030 fps=375 q=-0.0 size=N/A time=00:03:29.79 bitrate=N/A speed=15.7x    frame= 5254 fps=377 q=-0.0 size=N/A time=00:03:39.13 bitrate=N/A speed=15.7x    frame= 5518 fps=382 q=-0.0 size=N/A time=00:03:50.14 bitrate=N/A speed=15.9x    frame= 5749 fps=384 q=-0.0 size=N/A time=00:03:59.78 bitrate=N/A speed=  16x    frame= 5974 fps=386 q=-0.0 size=N/A time=00:04:09.16 bitrate=N/A speed=16.1x    frame= 6210 fps=388 q=-0.0 size=N/A time=00:04:19.00 bitrate=N/A speed=16.2x    frame= 6482 fps=393 q=-0.0 size=N/A time=00:04:30.35 bitrate=N/A speed=16.4x    frame= 6733 fps=396 q=-0.0 size=N/A time=00:04:40.82 bitrate=N/A speed=16.5x    frame= 6987 fps=398 q=-0.0 size=N/A time=00:04:51.41 bitrate=N/A speed=16.6x    frame= 7244 fps=401 q=-0.0 size=N/A time=00:05:02.13 bitrate=N/A speed=16.7x    frame= 7499 fps=404 q=-0.0 size=N/A time=00:05:12.77 bitrate=N/A speed=16.8x    frame= 7738 fps=405 q=-0.0 size=N/A time=00:05:22.73 bitrate=N/A speed=16.9x    frame= 7978 fps=407 q=-0.0 size=N/A time=00:05:32.74 bitrate=N/A speed=  17x    frame= 8226 fps=409 q=-0.0 size=N/A time=00:05:43.09 bitrate=N/A speed=17.1x    frame= 8475 fps=411 q=-0.0 size=N/A time=00:05:53.47 bitrate=N/A speed=17.1x    frame= 8734 fps=413 q=-0.0 size=N/A time=00:06:04.28 bitrate=N/A speed=17.2x    frame= 8968 fps=414 q=-0.0 size=N/A time=00:06:14.04 bitrate=N/A speed=17.3x    frame= 9185 fps=414 q=-0.0 size=N/A time=00:06:23.09 bitrate=N/A speed=17.3x    frame= 9439 fps=416 q=-0.0 size=N/A time=00:06:33.68 bitrate=N/A speed=17.3x    frame= 9687 fps=417 q=-0.0 size=N/A time=00:06:44.02 bitrate=N/A speed=17.4x    frame= 9914 fps=418 q=-0.0 size=N/A time=00:06:53.49 bitrate=N/A speed=17.4x    frame=10181 fps=420 q=-0.0 size=N/A time=00:07:04.63 bitrate=N/A speed=17.5x    frame=10429 fps=421 q=-0.0 size=N/A time=00:07:14.97 bitrate=N/A speed=17.6x    frame=10676 fps=423 q=-0.0 size=N/A time=00:07:25.27 bitrate=N/A speed=17.6x    frame=10930 fps=424 q=-0.0 size=N/A time=00:07:35.87 bitrate=N/A speed=17.7x    frame=11132 fps=423 q=-0.0 size=N/A time=00:07:44.29 bitrate=N/A speed=17.7x    frame=11372 fps=424 q=-0.0 size=N/A time=00:07:54.30 bitrate=N/A speed=17.7x    frame=11601 fps=424 q=-0.0 size=N/A time=00:08:03.85 bitrate=N/A speed=17.7x    frame=11861 fps=426 q=-0.0 size=N/A time=00:08:14.70 bitrate=N/A speed=17.8x    frame=12111 fps=427 q=-0.0 size=N/A time=00:08:25.12 bitrate=N/A speed=17.8x    frame=12365 fps=428 q=-0.0 size=N/A time=00:08:35.72 bitrate=N/A speed=17.9x    frame=12643 fps=430 q=-0.0 size=N/A time=00:08:47.31 bitrate=N/A speed=17.9x    frame=12885 fps=431 q=-0.0 size=N/A time=00:08:57.41 bitrate=N/A speed=  18x    frame=13133 fps=432 q=-0.0 size=N/A time=00:09:07.75 bitrate=N/A speed=  18x    frame=13368 fps=432 q=-0.0 size=N/A time=00:09:17.55 bitrate=N/A speed=  18x    frame=13568 fps=431 q=-0.0 size=N/A time=00:09:25.89 bitrate=N/A speed=  18x    frame=13800 fps=432 q=-0.0 size=N/A time=00:09:35.57 bitrate=N/A speed=  18x    frame=14040 fps=432 q=-0.0 size=N/A time=00:09:45.58 bitrate=N/A speed=  18x    frame=14271 fps=432 q=-0.0 size=N/A time=00:09:55.21 bitrate=N/A speed=  18x    frame=14520 fps=433 q=-0.0 size=N/A time=00:10:05.60 bitrate=N/A speed=18.1x    frame=14753 fps=434 q=-0.0 size=N/A time=00:10:15.32 bitrate=N/A speed=18.1x    frame=14982 fps=434 q=-0.0 size=N/A time=00:10:24.87 bitrate=N/A speed=18.1x    frame=15238 fps=435 q=-0.0 size=N/A time=00:10:35.55 bitrate=N/A speed=18.1x    frame=15473 fps=435 q=-0.0 size=N/A time=00:10:45.35 bitrate=N/A speed=18.1x    frame=15735 fps=436 q=-0.0 size=N/A time=00:10:56.28 bitrate=N/A speed=18.2x    frame=15988 fps=437 q=-0.0 size=N/A time=00:11:06.83 bitrate=N/A speed=18.2x    frame=16257 fps=438 q=-0.0 size=N/A time=00:11:18.05 bitrate=N/A speed=18.3x    frame=16513 fps=439 q=-0.0 size=N/A time=00:11:28.72 bitrate=N/A speed=18.3x    frame=16758 fps=439 q=-0.0 size=N/A time=00:11:38.94 bitrate=N/A speed=18.3x    frame=16997 fps=440 q=-0.0 size=N/A time=00:11:48.91 bitrate=N/A speed=18.3x    frame=17270 fps=441 q=-0.0 size=N/A time=00:12:00.30 bitrate=N/A speed=18.4x    frame=17521 fps=441 q=-0.0 size=N/A time=00:12:10.77 bitrate=N/A speed=18.4x    frame=17767 fps=442 q=-0.0 size=N/A time=00:12:21.03 bitrate=N/A speed=18.4x    frame=18029 fps=443 q=-0.0 size=N/A time=00:12:31.95 bitrate=N/A speed=18.5x    frame=18270 fps=443 q=-0.0 size=N/A time=00:12:42.01 bitrate=N/A speed=18.5x    frame=18517 fps=443 q=-0.0 size=N/A time=00:12:52.31 bitrate=N/A speed=18.5x    frame=18742 fps=443 q=-0.0 size=N/A time=00:13:01.69 bitrate=N/A speed=18.5x    frame=19001 fps=444 q=-0.0 size=N/A time=00:13:12.50 bitrate=N/A speed=18.5x    frame=19264 fps=445 q=-0.0 size=N/A time=00:13:23.46 bitrate=N/A speed=18.5x    frame=19524 fps=445 q=-0.0 size=N/A time=00:13:34.31 bitrate=N/A speed=18.6x    frame=19785 fps=446 q=-0.0 size=N/A time=00:13:45.19 bitrate=N/A speed=18.6x    frame=20023 fps=446 q=-0.0 size=N/A time=00:13:55.12 bitrate=N/A speed=18.6x    frame=20259 fps=446 q=-0.0 size=N/A time=00:14:04.96 bitrate=N/A speed=18.6x    frame=20475 fps=446 q=-0.0 size=N/A time=00:14:13.97 bitrate=N/A speed=18.6x    frame=20708 fps=446 q=-0.0 size=N/A time=00:14:23.69 bitrate=N/A speed=18.6x    frame=20981 fps=447 q=-0.0 size=N/A time=00:14:35.08 bitrate=N/A speed=18.6x    frame=21260 fps=448 q=-0.0 size=N/A time=00:14:46.71 bitrate=N/A speed=18.7x    frame=21498 fps=448 q=-0.0 size=N/A time=00:14:56.64 bitrate=N/A speed=18.7x    frame=21741 fps=448 q=-0.0 size=N/A time=00:15:06.78 bitrate=N/A speed=18.7x    frame=22009 fps=449 q=-0.0 size=N/A time=00:15:17.95 bitrate=N/A speed=18.7x    frame=22273 fps=450 q=-0.0 size=N/A time=00:15:28.96 bitrate=N/A speed=18.8x    frame=22511 fps=450 q=-0.0 size=N/A time=00:15:38.89 bitrate=N/A speed=18.8x    frame=22760 fps=450 q=-0.0 size=N/A time=00:15:49.28 bitrate=N/A speed=18.8x    frame=23013 fps=451 q=-0.0 size=N/A time=00:15:59.83 bitrate=N/A speed=18.8x    frame=23264 fps=451 q=-0.0 size=N/A time=00:16:10.30 bitrate=N/A speed=18.8x    frame=23522 fps=452 q=-0.0 size=N/A time=00:16:21.06 bitrate=N/A speed=18.8x    frame=23793 fps=452 q=-0.0 size=N/A time=00:16:32.36 bitrate=N/A speed=18.9x    frame=24064 fps=453 q=-0.0 size=N/A time=00:16:43.66 bitrate=N/A speed=18.9x    frame=24326 fps=454 q=-0.0 size=N/A time=00:16:54.59 bitrate=N/A speed=18.9x    frame=24553 fps=453 q=-0.0 size=N/A time=00:17:04.06 bitrate=N/A speed=18.9x    frame=24777 fps=453 q=-0.0 size=N/A time=00:17:13.40 bitrate=N/A speed=18.9x    frame=24986 fps=453 q=-0.0 size=N/A time=00:17:22.12 bitrate=N/A speed=18.9x    frame=25201 fps=452 q=-0.0 size=N/A time=00:17:31.09 bitrate=N/A speed=18.9x    frame=25414 fps=452 q=-0.0 size=N/A time=00:17:39.97 bitrate=N/A speed=18.9x    frame=25671 fps=453 q=-0.0 size=N/A time=00:17:50.69 bitrate=N/A speed=18.9x    frame=25931 fps=453 q=-0.0 size=N/A time=00:18:01.53 bitrate=N/A speed=18.9x    frame=26194 fps=454 q=-0.0 size=N/A time=00:18:12.50 bitrate=N/A speed=18.9x    frame=26455 fps=454 q=-0.0 size=N/A time=00:18:23.39 bitrate=N/A speed=18.9x    frame=26726 fps=455 q=-0.0 size=N/A time=00:18:34.69 bitrate=N/A speed=  19x    frame=26964 fps=455 q=-0.0 size=N/A time=00:18:44.62 bitrate=N/A speed=  19x    frame=27229 fps=455 q=-0.0 size=N/A time=00:18:55.67 bitrate=N/A speed=  19x    frame=27494 fps=456 q=-0.0 size=N/A time=00:19:06.72 bitrate=N/A speed=  19x    frame=27730 fps=456 q=-0.0 size=N/A time=00:19:16.57 bitrate=N/A speed=  19x    frame=27975 fps=456 q=-0.0 size=N/A time=00:19:26.79 bitrate=N/A speed=  19x    frame=28247 fps=457 q=-0.0 size=N/A time=00:19:38.13 bitrate=N/A speed=  19x    frame=28519 fps=457 q=-0.0 size=N/A time=00:19:49.47 bitrate=N/A speed=19.1x    frame=28793 fps=458 q=-0.0 size=N/A time=00:20:00.90 bitrate=N/A speed=19.1x    frame=29065 fps=458 q=-0.0 size=N/A time=00:20:12.25 bitrate=N/A speed=19.1x    frame=29329 fps=459 q=-0.0 size=N/A time=00:20:23.26 bitrate=N/A speed=19.1x    frame=29602 fps=459 q=-0.0 size=N/A time=00:20:34.65 bitrate=N/A speed=19.2x    frame=29862 fps=460 q=-0.0 size=N/A time=00:20:45.49 bitrate=N/A speed=19.2x    frame=30097 fps=460 q=-0.0 size=N/A time=00:20:55.29 bitrate=N/A speed=19.2x    frame=30363 fps=460 q=-0.0 size=N/A time=00:21:06.39 bitrate=N/A speed=19.2x    frame=30628 fps=460 q=-0.0 size=N/A time=00:21:17.44 bitrate=N/A speed=19.2x    frame=30873 fps=461 q=-0.0 size=N/A time=00:21:27.66 bitrate=N/A speed=19.2x    frame=31110 fps=461 q=-0.0 size=N/A time=00:21:37.54 bitrate=N/A speed=19.2x    frame=31333 fps=460 q=-0.0 size=N/A time=00:21:46.84 bitrate=N/A speed=19.2x    frame=31504 fps=459 q=-0.0 size=N/A time=00:21:53.97 bitrate=N/A speed=19.2x    frame=31619 fps=458 q=-0.0 size=N/A time=00:21:58.77 bitrate=N/A speed=19.1x    frame=31717 fps=456 q=-0.0 size=N/A time=00:22:02.86 bitrate=N/A speed=  19x    frame=31845 fps=454 q=-0.0 size=N/A time=00:22:08.20 bitrate=N/A speed=18.9x    frame=31998 fps=453 q=-0.0 size=N/A time=00:22:14.58 bitrate=N/A speed=18.9x    frame=32142 fps=452 q=-0.0 size=N/A time=00:22:20.58 bitrate=N/A speed=18.8x    frame=32287 fps=450 q=-0.0 size=N/A time=00:22:26.63 bitrate=N/A speed=18.8x    frame=32411 fps=449 q=-0.0 size=N/A time=00:22:31.80 bitrate=N/A speed=18.7x    frame=32514 fps=447 q=-0.0 size=N/A time=00:22:36.10 bitrate=N/A speed=18.7x    frame=32628 fps=446 q=-0.0 size=N/A time=00:22:40.85 bitrate=N/A speed=18.6x    frame=32782 fps=445 q=-0.0 size=N/A time=00:22:47.28 bitrate=N/A speed=18.5x    frame=32936 fps=444 q=-0.0 size=N/A time=00:22:53.70 bitrate=N/A speed=18.5x    frame=33077 fps=442 q=-0.0 size=N/A time=00:22:59.58 bitrate=N/A speed=18.4x    frame=33214 fps=441 q=-0.0 size=N/A time=00:23:05.30 bitrate=N/A speed=18.4x    frame=33338 fps=440 q=-0.0 size=N/A time=00:23:10.47 bitrate=N/A speed=18.3x    frame=33435 fps=438 q=-0.0 size=N/A time=00:23:14.51 bitrate=N/A speed=18.3x    frame=33547 fps=437 q=-0.0 size=N/A time=00:23:19.18 bitrate=N/A speed=18.2x    [Parsed_ssim_10 @ 00000159de2431c0] SSIM Y:0.994148 (22.326760) U:0.995165 (23.156351) V:0.995395 (23.367720) All:0.994525 (22.616332)
[out#0/null @ 00000159c7574540] video:14446KiB audio:262920KiB subtitle:0KiB other streams:0KiB global headers:0KiB muxing overhead: unknown
frame=33619 fps=436 q=-0.0 Lsize=N/A time=00:23:22.19 bitrate=N/A speed=18.2x    
